<svg width="294" height="29" viewBox="0 0 294 29" fill="none" xmlns="http://www.w3.org/2000/svg">
<path d="M4.11853 26.3001V3.37062C4.11853 3.19433 4.06187 3.04953 3.94854 2.9362C3.83522 2.82288 3.69041 2.73474 3.51413 2.67178C3.35044 2.59623 3.17415 2.54586 2.98528 2.52068C2.7964 2.49549 2.62641 2.4829 2.47531 2.4829H1.70092C1.52464 2.4829 1.37983 2.4829 1.26651 2.4829C1.15318 2.4829 1.04615 2.47031 0.945419 2.44513C0.794318 2.44513 0.718768 2.40106 0.718768 2.31291C0.718768 2.17441 0.794318 2.08626 0.945419 2.04849C1.36095 1.97294 1.7387 1.91628 2.07867 1.8785C2.43124 1.84073 2.77751 1.81554 3.11749 1.80295C3.45746 1.77777 3.79744 1.76518 4.13742 1.76518C4.48998 1.75258 4.87403 1.7274 5.28956 1.68963C5.35252 1.68963 5.49103 1.68333 5.70508 1.67074C5.93174 1.64555 6.19616 1.62037 6.49836 1.59519C6.81316 1.57 7.14054 1.54482 7.48052 1.51964C7.83308 1.48186 8.16047 1.45038 8.46267 1.4252C8.77746 1.38742 9.04818 1.35594 9.27483 1.33076C9.50148 1.30558 9.65259 1.28669 9.72814 1.2741C10.0933 1.22373 10.4899 1.18596 10.9181 1.16077C11.3588 1.123 11.7932 1.10411 12.2213 1.10411C13.5308 1.10411 14.7145 1.2678 15.7722 1.59519C16.8425 1.92257 17.7553 2.38847 18.5109 2.99287C19.2664 3.59727 19.8456 4.32129 20.2485 5.16494C20.664 6.00858 20.8718 6.94666 20.8718 7.97918C20.8718 8.79764 20.7837 9.57203 20.6074 10.3024C20.4311 11.0201 20.0848 11.7252 19.5686 12.4178C19.3167 12.7451 19.046 13.0285 18.7564 13.2677C18.4794 13.4944 18.1898 13.7021 17.8876 13.891C17.598 14.0799 17.2958 14.2562 16.981 14.4198C16.6662 14.5835 16.3514 14.7661 16.0366 14.9676C15.9484 15.0179 15.9044 15.1061 15.9044 15.232C15.9044 15.2572 15.9358 15.3327 15.9988 15.4587C16.855 16.5038 17.6861 17.5678 18.492 18.6507C19.2978 19.7335 20.0785 20.8479 20.834 21.9938C21.1866 22.4848 21.5769 22.9822 22.0051 23.4859C22.4458 23.9895 22.8865 24.4617 23.3272 24.9024C23.5664 25.1417 23.812 25.3683 24.0638 25.5824C24.3156 25.7965 24.6052 26.0042 24.9326 26.2057C25.2726 26.3946 25.6692 26.5771 26.1225 26.7534C26.5758 26.9171 27.1173 27.0619 27.7469 27.1878C27.9106 27.2382 28.0491 27.2949 28.1624 27.3578C28.2883 27.4082 28.3513 27.49 28.3513 27.6034C28.3513 27.83 28.2757 27.9496 28.1246 27.9622C28.0994 27.9874 28.0428 28 27.9546 28C27.8791 28 27.7846 28 27.6713 28H27.1802C26.9284 28 26.6262 28 26.2736 28C25.9337 27.9874 25.5685 27.9811 25.1782 27.9811C24.8004 27.9685 24.4101 27.9559 24.0071 27.9433C23.6042 27.9307 23.2327 27.9182 22.8928 27.9056C22.3891 27.8804 21.9169 27.8363 21.4762 27.7733C21.0355 27.7104 20.5948 27.5341 20.1541 27.2445C19.8645 27.106 19.5623 26.8667 19.2475 26.5268C18.9327 26.1742 18.6368 25.7965 18.3598 25.3935C18.0198 24.9402 17.6546 24.4365 17.2643 23.8825C16.8865 23.3285 16.5025 22.7681 16.1121 22.2015C15.7218 21.6349 15.3377 21.0809 14.96 20.5394C14.5948 19.998 14.2549 19.5069 13.9401 19.0662C13.6379 18.6129 13.3797 18.2351 13.1657 17.9329C12.9642 17.6181 12.832 17.4104 12.769 17.3096C12.7187 17.2341 12.6242 17.1019 12.4857 16.913C12.3598 16.7241 12.2213 16.5352 12.0702 16.3464C11.9191 16.1449 11.768 15.9686 11.6169 15.8175C11.4658 15.6538 11.3525 15.5657 11.2769 15.5531C10.9747 15.5153 10.6221 15.4901 10.2192 15.4775C9.82887 15.465 9.47001 15.4587 9.14262 15.4587H8.65154C8.51304 15.4587 8.37453 15.4964 8.23602 15.572C8.1101 15.6349 8.02196 15.7483 7.97159 15.912V24.8269C7.97159 24.978 7.97789 25.1543 7.99048 25.3557C8.01566 25.5572 8.04714 25.7524 8.08492 25.9413C8.12269 26.1301 8.17306 26.3064 8.23602 26.4701C8.29898 26.6212 8.37453 26.7282 8.46267 26.7912C8.62636 26.9045 8.90338 27.0053 9.29372 27.0934C9.68406 27.1689 10.0933 27.2319 10.5214 27.2823C10.9621 27.32 11.3776 27.3515 11.768 27.3767C12.1709 27.4019 12.4542 27.4145 12.6179 27.4145C12.7313 27.4145 12.8068 27.4649 12.8446 27.5656C12.8824 27.6663 12.9012 27.7671 12.9012 27.8678C12.9012 28.0063 12.8698 28.0881 12.8068 28.1133C12.7564 28.1511 12.6494 28.17 12.4857 28.17C12.2843 28.17 11.9632 28.1574 11.5225 28.1322C11.0817 28.1196 10.6159 28.1007 10.1248 28.0756C9.64629 28.063 9.19928 28.0441 8.78376 28.0189C8.38082 28.0063 8.1101 28 7.97159 28H2.11645C2.06608 28 1.98423 28 1.87091 28C1.75758 27.9874 1.63167 27.9811 1.49316 27.9811C1.35465 27.9685 1.21614 27.9622 1.07763 27.9622C0.939123 27.9496 0.819502 27.9433 0.718768 27.9433C0.580259 27.9182 0.466934 27.9056 0.378792 27.9056C0.303242 27.893 0.265467 27.8174 0.265467 27.6789C0.265467 27.5908 0.29065 27.5278 0.341017 27.49C0.391384 27.4397 0.517301 27.383 0.718768 27.32C0.958011 27.2697 1.26021 27.2445 1.62537 27.2445C2.00312 27.2319 2.36828 27.2004 2.72085 27.1501C3.07342 27.0997 3.38191 27.0178 3.64634 26.9045C3.92336 26.7786 4.08075 26.5771 4.11853 26.3001ZM7.97159 2.38847V14.5143C7.97159 14.6402 8.00937 14.7472 8.08492 14.8354C8.16047 14.9235 8.24231 14.9676 8.33046 14.9676H9.08596C9.51408 14.9676 9.96738 14.9487 10.4459 14.9109C10.9243 14.8731 11.3084 14.8228 11.598 14.7598C11.938 14.6717 12.278 14.5332 12.6179 14.3443C12.9579 14.1428 13.279 13.9225 13.5812 13.6832C13.8834 13.4314 14.1667 13.167 14.4311 12.8899C14.6956 12.6003 14.9285 12.3233 15.13 12.0589C15.344 11.7567 15.5329 11.4797 15.6966 11.2278C15.8603 10.976 15.9988 10.7116 16.1121 10.4346C16.238 10.1575 16.3325 9.84905 16.3954 9.50908C16.471 9.15651 16.5277 8.74098 16.5654 8.2625C16.5654 7.59514 16.5151 7.00333 16.4143 6.48707C16.3136 5.95821 16.1499 5.47973 15.9233 5.05161C15.7092 4.62349 15.4385 4.22685 15.1111 3.86169C14.7837 3.49654 14.3934 3.14397 13.9401 2.80399C13.789 2.70326 13.6127 2.60252 13.4112 2.50179C13.2223 2.40106 13.0209 2.31291 12.8068 2.23736C12.5927 2.14922 12.3724 2.07367 12.1457 2.01071C11.9191 1.94776 11.705 1.89739 11.5036 1.85961C11.3902 1.83443 11.2014 1.82184 10.9369 1.82184C10.6725 1.80925 10.4585 1.80295 10.2948 1.80295C10.1185 1.80295 9.89812 1.80925 9.6337 1.82184C9.36927 1.82184 9.11114 1.84073 8.85931 1.8785C8.62007 1.91628 8.4123 1.97923 8.23602 2.06738C8.05973 2.14293 7.97159 2.24996 7.97159 2.38847ZM34.9241 18.5562L38.1539 18.424C38.6576 18.3862 39.0416 18.2666 39.3061 18.0651C39.5705 17.8511 39.7657 17.5992 39.8916 17.3096C40.0301 17.0074 40.1308 16.6801 40.1938 16.3275C40.2693 15.9749 40.3764 15.6286 40.5149 15.2887C40.5526 15.1376 40.6156 15.062 40.7037 15.062C40.88 15.062 40.9682 15.1061 40.9682 15.1942V15.9497C40.9682 16.4534 40.943 17.0011 40.8926 17.593C40.8548 18.1722 40.836 18.6695 40.836 19.0851C40.836 19.488 40.8674 19.9161 40.9304 20.3694C41.0059 20.8227 41.0437 21.2886 41.0437 21.7671C41.0437 21.8301 41.0374 21.9308 41.0248 22.0693C41.0122 22.2078 40.9933 22.3526 40.9682 22.5037C40.943 22.6548 40.9052 22.787 40.8548 22.9004C40.8171 23.0137 40.7604 23.0703 40.6849 23.0703C40.5463 23.0703 40.4582 23.0074 40.4204 22.8815C40.3952 22.743 40.3701 22.617 40.3449 22.5037C40.3197 22.3526 40.2756 22.17 40.2127 21.956C40.1497 21.7419 40.0804 21.5279 40.0049 21.3138C39.9293 21.0872 39.8601 20.8857 39.7971 20.7094C39.7342 20.5331 39.6901 20.4135 39.6649 20.3505C39.5516 20.1239 39.3312 19.9476 39.0039 19.8217C38.6765 19.6832 38.305 19.5824 37.8895 19.5195C37.4866 19.4439 37.0647 19.3999 36.624 19.3873C36.1959 19.3621 35.8182 19.3495 35.4908 19.3495H34.9241C34.7227 19.3495 34.5968 19.3936 34.5464 19.4817C34.496 19.5573 34.4708 19.6832 34.4708 19.8595V26.489C34.4708 26.8667 34.5905 27.106 34.8297 27.2067H40.5715C40.8234 27.2067 41.0815 27.2067 41.3459 27.2067C41.6229 27.1941 41.8055 27.1627 41.8937 27.1123C42.0825 27.0619 42.2399 26.9549 42.3658 26.7912C42.5044 26.6149 42.6177 26.4512 42.7058 26.3001C42.7436 26.2372 42.8128 26.1049 42.9136 25.9035C43.0269 25.702 43.1402 25.488 43.2536 25.2613C43.3795 25.0221 43.4928 24.8017 43.5935 24.6002C43.7069 24.3988 43.7887 24.2666 43.8391 24.2036C43.9146 24.0525 44.0405 23.9769 44.2168 23.9769C44.3301 23.9769 44.412 24.021 44.4624 24.1092V26.9234C44.4624 27.0367 44.4498 27.1438 44.4246 27.2445C44.412 27.3326 44.3931 27.446 44.3679 27.5845C44.3176 27.7608 44.2546 27.8804 44.179 27.9433C44.1035 27.9937 43.9587 28.0441 43.7446 28.0944C42.4729 28.0944 41.2641 28.0881 40.1182 28.0756C38.985 28.063 37.8328 28.0504 36.6618 28.0378C35.4908 28.0378 34.2568 28.0315 32.9598 28.0189C31.6629 28.0063 30.2148 28 28.6157 28C28.4016 28 28.2946 27.893 28.2946 27.6789C28.2946 27.5404 28.3639 27.4334 28.5024 27.3578C28.6409 27.2823 28.7668 27.2319 28.8801 27.2067C28.9557 27.2067 29.0753 27.2004 29.239 27.1878C29.4153 27.1752 29.6041 27.1689 29.8056 27.1689C30.0071 27.1564 30.2023 27.1438 30.3911 27.1312C30.58 27.1186 30.7437 27.1123 30.8822 27.1123C31.1844 27.1123 31.3355 26.873 31.3355 26.3946V12.4555C31.3355 12.2415 31.3103 11.9771 31.26 11.6623C31.2222 11.3475 31.1403 11.083 31.0144 10.869C30.9263 10.806 30.8822 10.7745 30.8822 10.7745L28.2379 10.5101C27.9987 10.5101 27.8791 10.3905 27.8791 10.1513C27.8791 10.0883 27.8917 10.0127 27.9169 9.9246C27.942 9.82387 28.0239 9.7735 28.1624 9.7735H31.26C32.4688 9.7735 33.6587 9.76721 34.8297 9.75461C36.0007 9.74202 37.0773 9.73573 38.0595 9.73573H40.7415C40.943 9.73573 41.1507 9.74202 41.3648 9.75461C41.5915 9.75461 41.8055 9.76091 42.007 9.7735C42.2084 9.7735 42.391 9.7798 42.5547 9.79239C42.7184 9.79239 42.8443 9.79239 42.9325 9.79239C43.0206 9.80498 43.0899 9.84905 43.1402 9.9246C43.1906 10.0002 43.2221 10.0946 43.2347 10.2079C43.2599 10.3086 43.2724 10.4157 43.2724 10.529C43.285 10.6297 43.2913 10.7116 43.2913 10.7745V13.8532C43.2913 13.9665 43.2473 14.0232 43.1591 14.0232C43.0206 14.0232 42.9136 13.9351 42.838 13.7588C42.7751 13.5699 42.6743 13.3495 42.5358 13.0977C42.4225 12.8207 42.284 12.5437 42.1203 12.2667C41.9566 11.9896 41.837 11.7756 41.7614 11.6245C41.6481 11.4104 41.4718 11.2467 41.2326 11.1334C41.0059 11.0075 40.7478 10.9131 40.4582 10.8501C40.1686 10.7745 39.8727 10.7179 39.5705 10.6801C39.2683 10.6423 39.0039 10.5983 38.7772 10.5479C38.7017 10.5479 38.5065 10.5416 38.1917 10.529C37.8769 10.5164 37.518 10.5101 37.1151 10.5101C36.7248 10.4975 36.3344 10.4849 35.9441 10.4723C35.5663 10.4598 35.2704 10.4535 35.0564 10.4535C34.7919 10.4535 34.6282 10.529 34.5653 10.6801C34.5023 10.8312 34.4708 11.0579 34.4708 11.3601V18.1029C34.4708 18.2162 34.5086 18.3233 34.5842 18.424C34.6723 18.5121 34.7856 18.5562 34.9241 18.5562ZM51.5263 27.83C50.8464 27.83 50.1979 27.8615 49.5809 27.9244C48.9639 27.9748 48.2839 28 47.541 28H46.7855C46.6722 28 46.5904 27.9307 46.54 27.7922C46.4896 27.6411 46.4644 27.5278 46.4644 27.4523C46.4644 27.3263 46.477 27.2193 46.5022 27.1312C46.54 27.0304 46.603 26.9738 46.6911 26.9612C46.8296 26.9234 46.9933 26.8919 47.1822 26.8667C47.371 26.8416 47.5662 26.8227 47.7677 26.8101C47.9692 26.7849 48.158 26.7723 48.3343 26.7723C48.5232 26.7597 48.6869 26.7534 48.8254 26.7534C49.1276 26.7534 49.4172 26.6842 49.6942 26.5457C49.9838 26.4071 50.2168 26.2372 50.3931 26.0357C50.519 25.872 50.626 25.7146 50.7141 25.5635C50.8023 25.3998 50.8778 25.1795 50.9408 24.9024C51.0163 24.6254 51.073 24.2666 51.1108 23.8258C51.1611 23.3851 51.2115 22.8059 51.2619 22.0882L52.1496 5.88266C52.1496 5.49232 52.1055 5.10198 52.0174 4.71164C51.9292 4.3087 51.7844 3.93725 51.583 3.59727C51.3941 3.2447 51.1423 2.9425 50.8275 2.69067C50.5127 2.43883 50.1286 2.26255 49.6753 2.16181C49.6376 2.14922 49.5368 2.13663 49.3731 2.12404C49.2094 2.09886 49.0332 2.07367 48.8443 2.04849C48.6554 2.02331 48.4791 2.00442 48.3154 1.99183C48.1517 1.96664 48.0447 1.95405 47.9943 1.95405C47.7425 1.90368 47.541 1.85332 47.3899 1.80295C47.2514 1.75258 47.1822 1.59519 47.1822 1.33076C47.1822 1.21744 47.1885 1.11041 47.2011 1.00967C47.2136 0.896348 47.264 0.839685 47.3522 0.839685H48.1265C48.4539 0.839685 48.7561 0.852277 49.0332 0.87746C49.3228 0.902643 49.6124 0.934123 49.902 0.971898C50.1916 1.00967 50.4938 1.04115 50.8086 1.06634C51.136 1.09152 51.4948 1.10411 51.8852 1.10411H53.6795C53.8935 1.10411 54.0887 1.09152 54.265 1.06634C54.4539 1.02856 54.6994 1.00967 55.0016 1.00967C55.2283 1.00967 55.4675 1.04115 55.7193 1.10411C55.9712 1.15448 56.1538 1.2678 56.2671 1.44409C56.4811 1.69592 56.6637 1.97923 56.8148 2.29403C56.9659 2.59623 57.0981 2.91732 57.2115 3.25729L63.5577 19.9539C63.6081 20.0798 63.6584 20.1868 63.7088 20.275C63.7592 20.3505 63.8158 20.3883 63.8788 20.3883C63.9669 20.3883 64.0362 20.3379 64.0865 20.2372C64.1369 20.1365 64.1747 20.042 64.1999 19.9539L71.3394 1.23632C71.4149 1.09781 71.5219 1.00967 71.6605 0.971898C71.8116 0.934123 71.9752 0.915235 72.1515 0.915235C72.7811 0.915235 73.3855 0.902643 73.9647 0.87746C74.5565 0.852277 75.1421 0.820797 75.7213 0.783022C76.3131 0.745247 76.9049 0.713768 77.4967 0.688584C78.1011 0.663401 78.737 0.650809 79.4044 0.650809C79.4421 0.650809 79.4925 0.650809 79.5555 0.650809C79.631 0.650809 79.7003 0.663401 79.7632 0.688584C79.8388 0.701176 79.9017 0.726359 79.9521 0.764135C80.0025 0.80191 80.0276 0.852277 80.0276 0.915235C80.0276 1.09152 79.9521 1.2741 79.801 1.46297C79.6499 1.63926 79.461 1.7274 79.2344 1.7274C78.6048 1.7274 78.0822 1.80295 77.6667 1.95405C77.2512 2.10515 76.8293 2.41365 76.4012 2.87954C76.2124 3.06842 76.0613 3.28248 75.9479 3.52172C75.8346 3.76096 75.7402 4.01909 75.6646 4.29611C75.6017 4.56053 75.5576 4.83755 75.5324 5.12716C75.5198 5.40418 75.5135 5.6749 75.5135 5.93933L75.8157 26.1112C75.9039 26.3757 76.1179 26.5582 76.4579 26.659C76.7979 26.7597 77.1756 26.829 77.5911 26.8667C78.0067 26.8919 78.4096 26.9171 78.7999 26.9423C79.2029 26.9549 79.5114 27.0116 79.7254 27.1123C79.8765 27.1752 79.9647 27.2571 79.9899 27.3578C80.015 27.446 80.0276 27.5278 80.0276 27.6034C80.0276 27.8048 79.9206 27.9307 79.7066 27.9811C79.5051 28.0189 79.2281 28.0378 78.8755 28.0378C78.4726 28.0378 78.0948 28.0315 77.7422 28.0189C77.3897 28.0063 77.0371 28 76.6845 28C76.3446 27.9874 75.9857 27.9748 75.608 27.9622C75.2302 27.9496 74.8084 27.9433 74.3425 27.9433H71.4527C71.0875 27.9433 70.735 27.9496 70.395 27.9622C70.055 27.9622 69.715 27.9748 69.3751 28C68.9721 28.0378 68.5692 28.0567 68.1663 28.0567C68.0655 28.0567 67.9585 28.0504 67.8452 28.0378C67.7444 28.0378 67.6437 28.0189 67.543 27.9811C67.4548 27.9433 67.3793 27.8867 67.3163 27.8111C67.2659 27.723 67.2408 27.6097 67.2408 27.4711C67.2408 27.2193 67.3982 27.0556 67.7129 26.9801C68.0277 26.8919 68.4055 26.8479 68.8462 26.8479H69.6395C69.9039 26.8479 70.1494 26.8416 70.3761 26.829C70.6153 26.8164 70.8231 26.7786 70.9994 26.7156C71.1757 26.6527 71.3142 26.5645 71.4149 26.4512C71.5282 26.3253 71.5849 26.1553 71.5849 25.9413L71.3394 5.88266C71.3394 5.81971 71.3268 5.73156 71.3016 5.61824C71.2764 5.50491 71.2323 5.44825 71.1694 5.44825C71.0812 5.44825 71.012 5.46714 70.9616 5.50491C70.9238 5.5301 70.8924 5.55528 70.8672 5.58046L62.4055 27.6034C62.3552 27.8048 62.2796 27.9056 62.1789 27.9056C62.0782 27.9056 61.99 27.8048 61.9145 27.6034L53.4906 5.39159C53.4528 5.24049 53.3773 5.16494 53.264 5.16494C53.2136 5.16494 53.1695 5.17753 53.1318 5.20271C53.1066 5.2279 53.094 5.29085 53.094 5.39159L52.6029 23.4292C52.6029 23.5803 52.6092 23.7818 52.6218 24.0336C52.647 24.2729 52.6785 24.5247 52.7162 24.7891C52.7666 25.0535 52.8233 25.3117 52.8862 25.5635C52.9618 25.8153 53.0562 26.0294 53.1695 26.2057C53.3332 26.4701 53.5788 26.6653 53.9061 26.7912C54.2461 26.9045 54.605 26.9864 54.9827 27.0367C55.3731 27.0745 55.7571 27.0997 56.1349 27.1123C56.5252 27.1249 56.8526 27.1501 57.117 27.1878C57.2681 27.2004 57.3689 27.2571 57.4192 27.3578C57.4822 27.4586 57.5137 27.5656 57.5137 27.6789C57.5137 27.7545 57.4696 27.8174 57.3815 27.8678C57.3059 27.9182 57.2052 27.9622 57.0793 28C56.9659 28.0252 56.8337 28.0378 56.6826 28.0378C56.5315 28.0504 56.393 28.0567 56.2671 28.0567C55.8012 28.0567 55.3668 28.0441 54.9638 28.0189C54.5609 27.9937 54.1706 27.9685 53.7928 27.9433C53.4151 27.9182 53.0436 27.893 52.6785 27.8678C52.3133 27.8426 51.9292 27.83 51.5263 27.83ZM89.0559 18.5562L92.2857 18.424C92.7893 18.3862 93.1734 18.2666 93.4378 18.0651C93.7022 17.8511 93.8974 17.5992 94.0233 17.3096C94.1618 17.0074 94.2626 16.6801 94.3255 16.3275C94.4011 15.9749 94.5081 15.6286 94.6466 15.2887C94.6844 15.1376 94.7473 15.062 94.8355 15.062C95.0118 15.062 95.0999 15.1061 95.0999 15.1942V15.9497C95.0999 16.4534 95.0747 17.0011 95.0244 17.593C94.9866 18.1722 94.9677 18.6695 94.9677 19.0851C94.9677 19.488 94.9992 19.9161 95.0621 20.3694C95.1377 20.8227 95.1755 21.2886 95.1755 21.7671C95.1755 21.8301 95.1692 21.9308 95.1566 22.0693C95.144 22.2078 95.1251 22.3526 95.0999 22.5037C95.0747 22.6548 95.037 22.787 94.9866 22.9004C94.9488 23.0137 94.8922 23.0703 94.8166 23.0703C94.6781 23.0703 94.59 23.0074 94.5522 22.8815C94.527 22.743 94.5018 22.617 94.4766 22.5037C94.4514 22.3526 94.4074 22.17 94.3444 21.956C94.2815 21.7419 94.2122 21.5279 94.1367 21.3138C94.0611 21.0872 93.9918 20.8857 93.9289 20.7094C93.8659 20.5331 93.8219 20.4135 93.7967 20.3505C93.6834 20.1239 93.463 19.9476 93.1356 19.8217C92.8082 19.6832 92.4368 19.5824 92.0212 19.5195C91.6183 19.4439 91.1965 19.3999 90.7558 19.3873C90.3277 19.3621 89.9499 19.3495 89.6225 19.3495H89.0559C88.8544 19.3495 88.7285 19.3936 88.6781 19.4817C88.6278 19.5573 88.6026 19.6832 88.6026 19.8595V26.489C88.6026 26.8667 88.7222 27.106 88.9615 27.2067H94.7033C94.9551 27.2067 95.2132 27.2067 95.4777 27.2067C95.7547 27.1941 95.9373 27.1627 96.0254 27.1123C96.2143 27.0619 96.3717 26.9549 96.4976 26.7912C96.6361 26.6149 96.7494 26.4512 96.8376 26.3001C96.8753 26.2372 96.9446 26.1049 97.0453 25.9035C97.1587 25.702 97.272 25.488 97.3853 25.2613C97.5112 25.0221 97.6246 24.8017 97.7253 24.6002C97.8386 24.3988 97.9205 24.2666 97.9708 24.2036C98.0464 24.0525 98.1723 23.9769 98.3486 23.9769C98.4619 23.9769 98.5437 24.021 98.5941 24.1092V26.9234C98.5941 27.0367 98.5815 27.1438 98.5563 27.2445C98.5437 27.3326 98.5249 27.446 98.4997 27.5845C98.4493 27.7608 98.3864 27.8804 98.3108 27.9433C98.2353 27.9937 98.0904 28.0441 97.8764 28.0944C96.6046 28.0944 95.3958 28.0881 94.25 28.0756C93.1167 28.063 91.9646 28.0504 90.7936 28.0378C89.6225 28.0378 88.3885 28.0315 87.0916 28.0189C85.7946 28.0063 84.3466 28 82.7475 28C82.5334 28 82.4264 27.893 82.4264 27.6789C82.4264 27.5404 82.4956 27.4334 82.6341 27.3578C82.7726 27.2823 82.8986 27.2319 83.0119 27.2067C83.0874 27.2067 83.207 27.2004 83.3707 27.1878C83.547 27.1752 83.7359 27.1689 83.9374 27.1689C84.1388 27.1564 84.334 27.1438 84.5229 27.1312C84.7118 27.1186 84.8755 27.1123 85.014 27.1123C85.3162 27.1123 85.4673 26.873 85.4673 26.3946V12.4555C85.4673 12.2415 85.4421 11.9771 85.3917 11.6623C85.3539 11.3475 85.2721 11.083 85.1462 10.869C85.058 10.806 85.014 10.7745 85.014 10.7745L82.3697 10.5101C82.1305 10.5101 82.0108 10.3905 82.0108 10.1513C82.0108 10.0883 82.0234 10.0127 82.0486 9.9246C82.0738 9.82387 82.1556 9.7735 82.2942 9.7735H85.3917C86.6005 9.7735 87.7904 9.76721 88.9615 9.75461C90.1325 9.74202 91.2091 9.73573 92.1912 9.73573H94.8733C95.0747 9.73573 95.2825 9.74202 95.4966 9.75461C95.7232 9.75461 95.9373 9.76091 96.1387 9.7735C96.3402 9.7735 96.5228 9.7798 96.6865 9.79239C96.8502 9.79239 96.9761 9.79239 97.0642 9.79239C97.1524 9.80498 97.2216 9.84905 97.272 9.9246C97.3224 10.0002 97.3538 10.0946 97.3664 10.2079C97.3916 10.3086 97.4042 10.4157 97.4042 10.529C97.4168 10.6297 97.4231 10.7116 97.4231 10.7745V13.8532C97.4231 13.9665 97.379 14.0232 97.2909 14.0232C97.1524 14.0232 97.0453 13.9351 96.9698 13.7588C96.9068 13.5699 96.8061 13.3495 96.6676 13.0977C96.5543 12.8207 96.4158 12.5437 96.2521 12.2667C96.0884 11.9896 95.9687 11.7756 95.8932 11.6245C95.7799 11.4104 95.6036 11.2467 95.3643 11.1334C95.1377 11.0075 94.8796 10.9131 94.59 10.8501C94.3003 10.7745 94.0044 10.7179 93.7022 10.6801C93.4 10.6423 93.1356 10.5983 92.909 10.5479C92.8334 10.5479 92.6382 10.5416 92.3234 10.529C92.0087 10.5164 91.6498 10.5101 91.2469 10.5101C90.8565 10.4975 90.4662 10.4849 90.0758 10.4723C89.6981 10.4598 89.4022 10.4535 89.1881 10.4535C88.9237 10.4535 88.76 10.529 88.697 10.6801C88.6341 10.8312 88.6026 11.0579 88.6026 11.3601V18.1029C88.6026 18.2162 88.6404 18.3233 88.7159 18.424C88.8041 18.5121 88.9174 18.5562 89.0559 18.5562ZM100.898 27.6789C100.898 27.5908 100.942 27.5152 101.031 27.4523C101.131 27.3893 101.245 27.3389 101.371 27.3012C101.497 27.2634 101.61 27.2382 101.711 27.2256C101.824 27.2004 101.899 27.1878 101.937 27.1878H102.372C102.523 27.1878 102.68 27.1815 102.844 27.1689C103.02 27.1564 103.19 27.1438 103.354 27.1312C103.517 27.106 103.656 27.0808 103.769 27.0556C103.895 27.0304 103.983 26.999 104.034 26.9612C104.185 26.8101 104.26 26.426 104.26 25.809V11.3601C104.26 10.9445 104.153 10.7179 103.939 10.6801C103.536 10.6423 103.064 10.6234 102.523 10.6234C102.246 10.6234 101.988 10.6109 101.748 10.5857C101.522 10.5479 101.301 10.5038 101.087 10.4535C100.961 10.4157 100.898 10.3401 100.898 10.2268C100.987 10.0253 101.119 9.89942 101.295 9.84905C101.484 9.79869 101.679 9.7735 101.881 9.7735C102.321 9.7735 102.787 9.79869 103.278 9.84905C103.769 9.88683 104.185 9.90571 104.525 9.90571C105.356 9.90571 106.212 9.88683 107.094 9.84905C107.988 9.79869 108.995 9.7735 110.116 9.7735C110.657 9.7735 111.18 9.7798 111.683 9.79239C112.199 9.80498 112.709 9.84276 113.213 9.90571C113.364 9.9309 113.572 9.98756 113.836 10.0757C114.113 10.1513 114.397 10.2394 114.686 10.3401C114.989 10.4409 115.266 10.5479 115.517 10.6612C115.782 10.762 115.971 10.8438 116.084 10.9068C117.658 11.763 118.848 12.8648 119.654 14.2121C120.46 15.5468 120.863 17.2026 120.863 19.1795C120.825 19.7084 120.774 20.2183 120.711 20.7094C120.648 21.2005 120.529 21.6916 120.353 22.1826C120.189 22.6611 119.937 23.1459 119.597 23.637C119.257 24.128 118.785 24.6443 118.181 25.1858C117.841 25.4628 117.482 25.7209 117.104 25.9601C116.726 26.1994 116.355 26.4134 115.99 26.6023C115.637 26.7912 115.303 26.9549 114.989 27.0934C114.686 27.2193 114.422 27.3138 114.195 27.3767C113.578 27.5278 112.986 27.6474 112.42 27.7356C111.853 27.8237 111.293 27.8867 110.739 27.9244C110.185 27.9622 109.618 27.9874 109.039 28C108.472 28 107.874 28 107.245 28H103.996H101.163C100.987 27.9622 100.898 27.8552 100.898 27.6789ZM107.264 26.1679C107.264 26.382 107.27 26.5771 107.282 26.7534C107.308 26.9171 107.377 27.0304 107.49 27.0934C107.591 27.1186 107.723 27.1438 107.887 27.1689C108.063 27.1815 108.252 27.1941 108.453 27.2067C108.667 27.2067 108.875 27.2067 109.077 27.2067C109.291 27.2067 109.486 27.2067 109.662 27.2067C110.267 27.2067 110.802 27.1627 111.268 27.0745C111.746 26.9738 112.174 26.8416 112.552 26.6779C112.942 26.5142 113.289 26.3253 113.591 26.1112C113.906 25.8846 114.208 25.6516 114.497 25.4124C114.951 24.9969 115.347 24.5562 115.687 24.0903C116.04 23.6244 116.33 23.1207 116.556 22.5793C116.795 22.0252 116.972 21.4271 117.085 20.785C117.211 20.1302 117.274 19.4062 117.274 18.6129C117.274 18.0211 117.236 17.4733 117.161 16.9697C117.085 16.4534 116.959 15.9686 116.783 15.5153C116.619 15.062 116.399 14.6276 116.122 14.2121C115.845 13.7966 115.511 13.381 115.121 12.9655C114.68 12.5122 114.208 12.1219 113.704 11.7945C113.213 11.4545 112.697 11.1838 112.155 10.9823C111.614 10.7682 111.066 10.6109 110.512 10.5101C109.971 10.4094 109.436 10.359 108.907 10.359C108.579 10.359 108.277 10.4031 108 10.4912C107.723 10.5668 107.478 10.762 107.264 11.0767V26.1679ZM135.803 26.3001V3.37062C135.803 3.19433 135.746 3.04953 135.633 2.9362C135.519 2.82288 135.374 2.73474 135.198 2.67178C135.035 2.59623 134.858 2.54586 134.669 2.52068C134.48 2.49549 134.31 2.4829 134.159 2.4829H133.385C133.209 2.4829 133.064 2.4829 132.951 2.4829C132.837 2.4829 132.73 2.47031 132.63 2.44513C132.478 2.44513 132.403 2.40106 132.403 2.31291C132.403 2.17441 132.478 2.08626 132.63 2.04849C133.045 1.97294 133.423 1.91628 133.763 1.8785C134.115 1.84073 134.462 1.81554 134.802 1.80295C135.142 1.77777 135.482 1.76518 135.821 1.76518C136.174 1.75258 136.558 1.7274 136.974 1.68963C137.037 1.68963 137.175 1.68333 137.389 1.67074C137.616 1.64555 137.88 1.62037 138.182 1.59519C138.497 1.57 138.825 1.54482 139.165 1.51964C139.517 1.48186 139.845 1.45038 140.147 1.4252C140.462 1.38742 140.732 1.35594 140.959 1.33076C141.186 1.30558 141.337 1.28669 141.412 1.2741C141.777 1.22373 142.174 1.18596 142.602 1.16077C143.043 1.123 143.477 1.10411 143.905 1.10411C145.215 1.10411 146.399 1.2678 147.456 1.59519C148.527 1.92257 149.439 2.38847 150.195 2.99287C150.95 3.59727 151.53 4.32129 151.933 5.16494C152.348 6.00858 152.556 6.94666 152.556 7.97918C152.556 8.79764 152.468 9.57203 152.291 10.3024C152.115 11.0201 151.769 11.7252 151.253 12.4178C151.001 12.7451 150.73 13.0285 150.44 13.2677C150.163 13.4944 149.874 13.7021 149.572 13.891C149.282 14.0799 148.98 14.2562 148.665 14.4198C148.35 14.5835 148.035 14.7661 147.721 14.9676C147.633 15.0179 147.588 15.1061 147.588 15.232C147.588 15.2572 147.62 15.3327 147.683 15.4587C148.539 16.5038 149.37 17.5678 150.176 18.6507C150.982 19.7335 151.763 20.8479 152.518 21.9938C152.871 22.4848 153.261 22.9822 153.689 23.4859C154.13 23.9895 154.571 24.4617 155.011 24.9024C155.251 25.1417 155.496 25.3683 155.748 25.5824C156 25.7965 156.289 26.0042 156.617 26.2057C156.957 26.3946 157.353 26.5771 157.807 26.7534C158.26 26.9171 158.801 27.0619 159.431 27.1878C159.595 27.2382 159.733 27.2949 159.846 27.3578C159.972 27.4082 160.035 27.49 160.035 27.6034C160.035 27.83 159.96 27.9496 159.809 27.9622C159.784 27.9874 159.727 28 159.639 28C159.563 28 159.469 28 159.355 28H158.864C158.612 28 158.31 28 157.958 28C157.618 27.9874 157.253 27.9811 156.862 27.9811C156.484 27.9685 156.094 27.9559 155.691 27.9433C155.288 27.9307 154.917 27.9182 154.577 27.9056C154.073 27.8804 153.601 27.8363 153.16 27.7733C152.72 27.7104 152.279 27.5341 151.838 27.2445C151.549 27.106 151.246 26.8667 150.932 26.5268C150.617 26.1742 150.321 25.7965 150.044 25.3935C149.704 24.9402 149.339 24.4365 148.948 23.8825C148.571 23.3285 148.187 22.7681 147.796 22.2015C147.406 21.6349 147.022 21.0809 146.644 20.5394C146.279 19.998 145.939 19.5069 145.624 19.0662C145.322 18.6129 145.064 18.2351 144.85 17.9329C144.648 17.6181 144.516 17.4104 144.453 17.3096C144.403 17.2341 144.308 17.1019 144.17 16.913C144.044 16.7241 143.905 16.5352 143.754 16.3464C143.603 16.1449 143.452 15.9686 143.301 15.8175C143.15 15.6538 143.037 15.5657 142.961 15.5531C142.659 15.5153 142.306 15.4901 141.903 15.4775C141.513 15.465 141.154 15.4587 140.827 15.4587H140.336C140.197 15.4587 140.059 15.4964 139.92 15.572C139.794 15.6349 139.706 15.7483 139.656 15.912V24.8269C139.656 24.978 139.662 25.1543 139.675 25.3557C139.7 25.5572 139.731 25.7524 139.769 25.9413C139.807 26.1301 139.857 26.3064 139.92 26.4701C139.983 26.6212 140.059 26.7282 140.147 26.7912C140.31 26.9045 140.587 27.0053 140.978 27.0934C141.368 27.1689 141.777 27.2319 142.205 27.2823C142.646 27.32 143.062 27.3515 143.452 27.3767C143.855 27.4019 144.138 27.4145 144.302 27.4145C144.415 27.4145 144.491 27.4649 144.529 27.5656C144.566 27.6663 144.585 27.7671 144.585 27.8678C144.585 28.0063 144.554 28.0881 144.491 28.1133C144.441 28.1511 144.333 28.17 144.17 28.17C143.968 28.17 143.647 28.1574 143.207 28.1322C142.766 28.1196 142.3 28.1007 141.809 28.0756C141.33 28.063 140.883 28.0441 140.468 28.0189C140.065 28.0063 139.794 28 139.656 28H133.801C133.75 28 133.668 28 133.555 28C133.442 27.9874 133.316 27.9811 133.177 27.9811C133.039 27.9685 132.9 27.9622 132.762 27.9622C132.623 27.9496 132.504 27.9433 132.403 27.9433C132.264 27.9182 132.151 27.9056 132.063 27.9056C131.987 27.893 131.95 27.8174 131.95 27.6789C131.95 27.5908 131.975 27.5278 132.025 27.49C132.075 27.4397 132.201 27.383 132.403 27.32C132.642 27.2697 132.944 27.2445 133.309 27.2445C133.687 27.2319 134.052 27.2004 134.405 27.1501C134.757 27.0997 135.066 27.0178 135.33 26.9045C135.607 26.7786 135.765 26.5771 135.803 26.3001ZM139.656 2.38847V14.5143C139.656 14.6402 139.693 14.7472 139.769 14.8354C139.845 14.9235 139.926 14.9676 140.015 14.9676H140.77C141.198 14.9676 141.651 14.9487 142.13 14.9109C142.608 14.8731 142.992 14.8228 143.282 14.7598C143.622 14.6717 143.962 14.5332 144.302 14.3443C144.642 14.1428 144.963 13.9225 145.265 13.6832C145.567 13.4314 145.851 13.167 146.115 12.8899C146.38 12.6003 146.613 12.3233 146.814 12.0589C147.028 11.7567 147.217 11.4797 147.381 11.2278C147.544 10.976 147.683 10.7116 147.796 10.4346C147.922 10.1575 148.017 9.84905 148.08 9.50908C148.155 9.15651 148.212 8.74098 148.25 8.2625C148.25 7.59514 148.199 7.00333 148.098 6.48707C147.998 5.95821 147.834 5.47973 147.607 5.05161C147.393 4.62349 147.123 4.22685 146.795 3.86169C146.468 3.49654 146.077 3.14397 145.624 2.80399C145.473 2.70326 145.297 2.60252 145.095 2.50179C144.906 2.40106 144.705 2.31291 144.491 2.23736C144.277 2.14922 144.056 2.07367 143.83 2.01071C143.603 1.94776 143.389 1.89739 143.188 1.85961C143.074 1.83443 142.885 1.82184 142.621 1.82184C142.357 1.80925 142.143 1.80295 141.979 1.80295C141.803 1.80295 141.582 1.80925 141.318 1.82184C141.053 1.82184 140.795 1.84073 140.543 1.8785C140.304 1.91628 140.096 1.97923 139.92 2.06738C139.744 2.14293 139.656 2.24996 139.656 2.38847ZM166.608 18.5562L169.838 18.424C170.342 18.3862 170.726 18.2666 170.99 18.0651C171.255 17.8511 171.45 17.5992 171.576 17.3096C171.714 17.0074 171.815 16.6801 171.878 16.3275C171.953 15.9749 172.06 15.6286 172.199 15.2887C172.237 15.1376 172.3 15.062 172.388 15.062C172.564 15.062 172.652 15.1061 172.652 15.1942V15.9497C172.652 16.4534 172.627 17.0011 172.577 17.593C172.539 18.1722 172.52 18.6695 172.52 19.0851C172.52 19.488 172.552 19.9161 172.614 20.3694C172.69 20.8227 172.728 21.2886 172.728 21.7671C172.728 21.8301 172.722 21.9308 172.709 22.0693C172.696 22.2078 172.677 22.3526 172.652 22.5037C172.627 22.6548 172.589 22.787 172.539 22.9004C172.501 23.0137 172.444 23.0703 172.369 23.0703C172.23 23.0703 172.142 23.0074 172.105 22.8815C172.079 22.743 172.054 22.617 172.029 22.5037C172.004 22.3526 171.96 22.17 171.897 21.956C171.834 21.7419 171.765 21.5279 171.689 21.3138C171.613 21.0872 171.544 20.8857 171.481 20.7094C171.418 20.5331 171.374 20.4135 171.349 20.3505C171.236 20.1239 171.015 19.9476 170.688 19.8217C170.361 19.6832 169.989 19.5824 169.574 19.5195C169.171 19.4439 168.749 19.3999 168.308 19.3873C167.88 19.3621 167.502 19.3495 167.175 19.3495H166.608C166.407 19.3495 166.281 19.3936 166.23 19.4817C166.18 19.5573 166.155 19.6832 166.155 19.8595V26.489C166.155 26.8667 166.275 27.106 166.514 27.2067H172.256C172.507 27.2067 172.766 27.2067 173.03 27.2067C173.307 27.1941 173.49 27.1627 173.578 27.1123C173.767 27.0619 173.924 26.9549 174.05 26.7912C174.188 26.6149 174.302 26.4512 174.39 26.3001C174.428 26.2372 174.497 26.1049 174.598 25.9035C174.711 25.702 174.824 25.488 174.938 25.2613C175.064 25.0221 175.177 24.8017 175.278 24.6002C175.391 24.3988 175.473 24.2666 175.523 24.2036C175.599 24.0525 175.725 23.9769 175.901 23.9769C176.014 23.9769 176.096 24.021 176.146 24.1092V26.9234C176.146 27.0367 176.134 27.1438 176.109 27.2445C176.096 27.3326 176.077 27.446 176.052 27.5845C176.002 27.7608 175.939 27.8804 175.863 27.9433C175.788 27.9937 175.643 28.0441 175.429 28.0944C174.157 28.0944 172.948 28.0881 171.802 28.0756C170.669 28.063 169.517 28.0504 168.346 28.0378C167.175 28.0378 165.941 28.0315 164.644 28.0189C163.347 28.0063 161.899 28 160.3 28C160.086 28 159.979 27.893 159.979 27.6789C159.979 27.5404 160.048 27.4334 160.186 27.3578C160.325 27.2823 160.451 27.2319 160.564 27.2067C160.64 27.2067 160.759 27.2004 160.923 27.1878C161.099 27.1752 161.288 27.1689 161.49 27.1689C161.691 27.1564 161.886 27.1438 162.075 27.1312C162.264 27.1186 162.428 27.1123 162.566 27.1123C162.868 27.1123 163.02 26.873 163.02 26.3946V12.4555C163.02 12.2415 162.994 11.9771 162.944 11.6623C162.906 11.3475 162.824 11.083 162.699 10.869C162.61 10.806 162.566 10.7745 162.566 10.7745L159.922 10.5101C159.683 10.5101 159.563 10.3905 159.563 10.1513C159.563 10.0883 159.576 10.0127 159.601 9.9246C159.626 9.82387 159.708 9.7735 159.846 9.7735H162.944C164.153 9.7735 165.343 9.76721 166.514 9.75461C167.685 9.74202 168.761 9.73573 169.744 9.73573H172.426C172.627 9.73573 172.835 9.74202 173.049 9.75461C173.276 9.75461 173.49 9.76091 173.691 9.7735C173.893 9.7735 174.075 9.7798 174.239 9.79239C174.402 9.79239 174.528 9.79239 174.617 9.79239C174.705 9.80498 174.774 9.84905 174.824 9.9246C174.875 10.0002 174.906 10.0946 174.919 10.2079C174.944 10.3086 174.957 10.4157 174.957 10.529C174.969 10.6297 174.975 10.7116 174.975 10.7745V13.8532C174.975 13.9665 174.931 14.0232 174.843 14.0232C174.705 14.0232 174.598 13.9351 174.522 13.7588C174.459 13.5699 174.358 13.3495 174.22 13.0977C174.107 12.8207 173.968 12.5437 173.804 12.2667C173.641 11.9896 173.521 11.7756 173.446 11.6245C173.332 11.4104 173.156 11.2467 172.917 11.1334C172.69 11.0075 172.432 10.9131 172.142 10.8501C171.853 10.7745 171.557 10.7179 171.255 10.6801C170.952 10.6423 170.688 10.5983 170.461 10.5479C170.386 10.5479 170.191 10.5416 169.876 10.529C169.561 10.5164 169.202 10.5101 168.799 10.5101C168.409 10.4975 168.018 10.4849 167.628 10.4723C167.25 10.4598 166.954 10.4535 166.74 10.4535C166.476 10.4535 166.312 10.529 166.249 10.6801C166.186 10.8312 166.155 11.0579 166.155 11.3601V18.1029C166.155 18.2162 166.193 18.3233 166.268 18.424C166.356 18.5121 166.47 18.5562 166.608 18.5562ZM179.641 7.77142C179.641 7.14183 179.741 6.50595 179.943 5.86378C180.157 5.2216 180.44 4.6172 180.793 4.05057C181.145 3.47135 181.555 2.9488 182.02 2.4829C182.499 2.00442 183.003 1.62037 183.531 1.33076C184.035 1.04115 184.545 0.864868 185.061 0.80191C185.59 0.738951 186.157 0.707472 186.761 0.707472C187.441 0.707472 188.109 0.789318 188.763 0.95301C189.418 1.10411 190.054 1.34335 190.671 1.67074C190.721 1.70851 190.816 1.77147 190.954 1.85961C191.093 1.94776 191.244 2.05478 191.408 2.1807C191.584 2.30662 191.76 2.43883 191.936 2.57734C192.113 2.70326 192.27 2.82288 192.409 2.9362C192.459 2.98657 192.503 3.01175 192.541 3.01175C192.553 3.01175 192.585 2.98657 192.635 2.9362C192.673 2.88584 192.717 2.81029 192.768 2.70955C192.83 2.59623 192.893 2.4829 192.956 2.36958C193.019 2.24366 193.076 2.13033 193.126 2.0296C193.189 1.91628 193.233 1.84073 193.259 1.80295C193.284 1.73999 193.315 1.68333 193.353 1.63296C193.403 1.5826 193.435 1.55741 193.447 1.55741C193.447 1.54482 193.473 1.53852 193.523 1.53852C193.599 1.53852 193.655 1.57 193.693 1.63296C193.731 1.68333 193.756 1.74629 193.769 1.82184C193.794 1.89739 193.806 1.97923 193.806 2.06738C193.806 2.14293 193.806 2.20589 193.806 2.25625V2.38847C193.806 2.41365 193.8 2.46402 193.787 2.53957C193.787 2.61512 193.781 2.70326 193.769 2.80399C193.756 2.89213 193.743 2.97398 193.731 3.04953C193.731 3.12508 193.724 3.17545 193.712 3.20063V7.86586C193.712 7.96659 193.668 8.03585 193.58 8.07362C193.492 8.1114 193.416 8.13028 193.353 8.13028C193.215 8.13028 193.133 8.1051 193.107 8.05473C193.082 7.99178 193.045 7.88475 192.994 7.73365C192.856 7.40626 192.761 7.07258 192.711 6.7326C192.673 6.38004 192.585 6.02117 192.446 5.65601C192.308 5.24049 192.075 4.79348 191.748 4.315C191.42 3.82392 191.042 3.37062 190.614 2.95509C190.186 2.53957 189.739 2.19329 189.273 1.91628C188.807 1.63926 188.36 1.50075 187.932 1.50075C187.139 1.50075 186.528 1.55741 186.1 1.67074C185.458 1.85961 184.917 2.16811 184.476 2.59623C184.048 3.01175 183.651 3.48394 183.286 4.0128C183.185 4.1639 183.091 4.35907 183.003 4.59831C182.914 4.82496 182.839 5.0705 182.776 5.33492C182.726 5.58676 182.682 5.8323 182.644 6.07154C182.619 6.31078 182.606 6.50595 182.606 6.65705C182.606 7.26146 182.732 7.8092 182.984 8.30027C183.248 8.79135 183.588 9.23206 184.004 9.6224C184.419 10.0002 184.885 10.3401 185.401 10.6423C185.93 10.9319 186.459 11.1838 186.988 11.3978C187.441 11.5867 187.907 11.7693 188.386 11.9456C188.877 12.1219 189.355 12.3044 189.821 12.4933C190.3 12.6822 190.753 12.8899 191.181 13.1166C191.622 13.3433 192.012 13.6014 192.352 13.891C192.78 14.231 193.202 14.6528 193.617 15.1565C194.033 15.6475 194.404 16.189 194.732 16.7808C195.072 17.36 195.343 17.9644 195.544 18.594C195.745 19.2236 195.846 19.8406 195.846 20.445C195.846 21.616 195.638 22.6737 195.223 23.6181C194.82 24.5625 194.253 25.3683 193.523 26.0357C192.805 26.6905 191.955 27.2004 190.973 27.5656C189.991 27.9182 188.933 28.0944 187.8 28.0944C187.133 28.0944 186.484 28.063 185.855 28C185.238 27.9244 184.646 27.7985 184.079 27.6222C183.513 27.446 182.977 27.2004 182.474 26.8856C181.97 26.5708 181.492 26.1679 181.038 25.6768C180.988 25.6139 180.919 25.5761 180.831 25.5635C180.755 25.5509 180.692 25.5446 180.642 25.5446C180.428 25.5446 180.277 25.6013 180.188 25.7146C180.1 25.8279 180.025 25.9601 179.962 26.1112C179.911 26.2498 179.848 26.3757 179.773 26.489C179.697 26.6023 179.565 26.659 179.376 26.659L179.867 21.4649C179.892 21.3012 179.911 21.106 179.924 20.8794C179.937 20.6527 179.968 20.5016 180.018 20.4261C180.056 20.2498 180.125 20.1617 180.226 20.1617C180.377 20.1617 180.484 20.2561 180.547 20.445C180.623 20.659 180.686 20.8731 180.736 21.0872C180.786 21.2886 180.831 21.4901 180.868 21.6916C180.906 21.893 180.944 22.0819 180.982 22.2582C181.032 22.4345 181.095 22.5919 181.171 22.7304C181.46 23.2466 181.737 23.7062 182.002 24.1092C182.279 24.5121 182.581 24.8836 182.908 25.2235C183.248 25.5635 183.639 25.872 184.079 26.149C184.52 26.426 185.055 26.6842 185.685 26.9234C186.075 27.0619 186.446 27.1438 186.799 27.1689C187.152 27.1815 187.473 27.1878 187.762 27.1878C188.115 27.1878 188.467 27.1249 188.82 26.999C189.173 26.8605 189.594 26.6527 190.085 26.3757C190.803 25.9476 191.376 25.4376 191.804 24.8458C192.232 24.2414 192.446 23.4859 192.446 22.5793C192.446 21.9371 192.327 21.339 192.088 20.785C191.861 20.2309 191.546 19.7147 191.143 19.2362C190.564 18.594 190.01 18.0966 189.481 17.7441C188.952 17.3789 188.43 17.0893 187.913 16.8752C187.41 16.6612 186.906 16.4786 186.402 16.3275C185.899 16.1764 185.382 15.9875 184.854 15.7609C184.337 15.5342 183.809 15.232 183.267 14.8543C182.726 14.4765 182.159 13.9477 181.567 13.2677C180.283 11.7567 179.641 9.9246 179.641 7.77142ZM205.328 18.5562L208.558 18.424C209.061 18.3862 209.445 18.2666 209.71 18.0651C209.974 17.8511 210.169 17.5992 210.295 17.3096C210.434 17.0074 210.534 16.6801 210.597 16.3275C210.673 15.9749 210.78 15.6286 210.918 15.2887C210.956 15.1376 211.019 15.062 211.107 15.062C211.284 15.062 211.372 15.1061 211.372 15.1942V15.9497C211.372 16.4534 211.347 17.0011 211.296 17.593C211.258 18.1722 211.24 18.6695 211.24 19.0851C211.24 19.488 211.271 19.9161 211.334 20.3694C211.41 20.8227 211.447 21.2886 211.447 21.7671C211.447 21.8301 211.441 21.9308 211.428 22.0693C211.416 22.2078 211.397 22.3526 211.372 22.5037C211.347 22.6548 211.309 22.787 211.258 22.9004C211.221 23.0137 211.164 23.0703 211.088 23.0703C210.95 23.0703 210.862 23.0074 210.824 22.8815C210.799 22.743 210.774 22.617 210.748 22.5037C210.723 22.3526 210.679 22.17 210.616 21.956C210.553 21.7419 210.484 21.5279 210.408 21.3138C210.333 21.0872 210.264 20.8857 210.201 20.7094C210.138 20.5331 210.094 20.4135 210.069 20.3505C209.955 20.1239 209.735 19.9476 209.407 19.8217C209.08 19.6832 208.709 19.5824 208.293 19.5195C207.89 19.4439 207.468 19.3999 207.028 19.3873C206.6 19.3621 206.222 19.3495 205.894 19.3495H205.328C205.126 19.3495 205 19.3936 204.95 19.4817C204.9 19.5573 204.874 19.6832 204.874 19.8595V26.489C204.874 26.8667 204.994 27.106 205.233 27.2067H210.975C211.227 27.2067 211.485 27.2067 211.75 27.2067C212.027 27.1941 212.209 27.1627 212.297 27.1123C212.486 27.0619 212.644 26.9549 212.769 26.7912C212.908 26.6149 213.021 26.4512 213.109 26.3001C213.147 26.2372 213.216 26.1049 213.317 25.9035C213.431 25.702 213.544 25.488 213.657 25.2613C213.783 25.0221 213.896 24.8017 213.997 24.6002C214.11 24.3988 214.192 24.2666 214.243 24.2036C214.318 24.0525 214.444 23.9769 214.62 23.9769C214.734 23.9769 214.816 24.021 214.866 24.1092V26.9234C214.866 27.0367 214.853 27.1438 214.828 27.2445C214.816 27.3326 214.797 27.446 214.772 27.5845C214.721 27.7608 214.658 27.8804 214.583 27.9433C214.507 27.9937 214.362 28.0441 214.148 28.0944C212.876 28.0944 211.668 28.0881 210.522 28.0756C209.389 28.063 208.236 28.0504 207.065 28.0378C205.894 28.0378 204.66 28.0315 203.363 28.0189C202.066 28.0063 200.618 28 199.019 28C198.805 28 198.698 27.893 198.698 27.6789C198.698 27.5404 198.767 27.4334 198.906 27.3578C199.044 27.2823 199.17 27.2319 199.284 27.2067C199.359 27.2067 199.479 27.2004 199.643 27.1878C199.819 27.1752 200.008 27.1689 200.209 27.1689C200.411 27.1564 200.606 27.1438 200.795 27.1312C200.984 27.1186 201.147 27.1123 201.286 27.1123C201.588 27.1123 201.739 26.873 201.739 26.3946V12.4555C201.739 12.2415 201.714 11.9771 201.664 11.6623C201.626 11.3475 201.544 11.083 201.418 10.869C201.33 10.806 201.286 10.7745 201.286 10.7745L198.642 10.5101C198.402 10.5101 198.283 10.3905 198.283 10.1513C198.283 10.0883 198.295 10.0127 198.32 9.9246C198.346 9.82387 198.427 9.7735 198.566 9.7735H201.664C202.872 9.7735 204.062 9.76721 205.233 9.75461C206.404 9.74202 207.481 9.73573 208.463 9.73573H211.145C211.347 9.73573 211.554 9.74202 211.768 9.75461C211.995 9.75461 212.209 9.76091 212.411 9.7735C212.612 9.7735 212.795 9.7798 212.958 9.79239C213.122 9.79239 213.248 9.79239 213.336 9.79239C213.424 9.80498 213.493 9.84905 213.544 9.9246C213.594 10.0002 213.626 10.0946 213.638 10.2079C213.663 10.3086 213.676 10.4157 213.676 10.529C213.689 10.6297 213.695 10.7116 213.695 10.7745V13.8532C213.695 13.9665 213.651 14.0232 213.563 14.0232C213.424 14.0232 213.317 13.9351 213.242 13.7588C213.179 13.5699 213.078 13.3495 212.939 13.0977C212.826 12.8207 212.688 12.5437 212.524 12.2667C212.36 11.9896 212.241 11.7756 212.165 11.6245C212.052 11.4104 211.875 11.2467 211.636 11.1334C211.41 11.0075 211.151 10.9131 210.862 10.8501C210.572 10.7745 210.276 10.7179 209.974 10.6801C209.672 10.6423 209.407 10.5983 209.181 10.5479C209.105 10.5479 208.91 10.5416 208.595 10.529C208.28 10.5164 207.922 10.5101 207.519 10.5101C207.128 10.4975 206.738 10.4849 206.348 10.4723C205.97 10.4598 205.674 10.4535 205.46 10.4535C205.196 10.4535 205.032 10.529 204.969 10.6801C204.906 10.8312 204.874 11.0579 204.874 11.3601V18.1029C204.874 18.2162 204.912 18.3233 204.988 18.424C205.076 18.5121 205.189 18.5562 205.328 18.5562ZM215.81 27.4711C215.81 27.4208 215.848 27.3452 215.924 27.2445C215.987 27.1438 216.087 27.0934 216.226 27.0934C216.427 27.0934 216.641 27.0619 216.868 26.999C217.107 26.936 217.334 26.8416 217.548 26.7156C217.775 26.5771 217.982 26.4071 218.171 26.2057C218.373 25.9916 218.543 25.7398 218.681 25.4502L223.686 13.5888C223.699 13.5636 223.724 13.5069 223.762 13.4188C223.812 13.3181 223.838 13.2362 223.838 13.1733C223.838 13.0348 223.806 12.8962 223.743 12.7577C223.68 12.6192 223.605 12.4933 223.516 12.38C223.441 12.2541 223.372 12.147 223.309 12.0589C223.246 11.9582 223.214 11.87 223.214 11.7945C223.214 11.6686 223.258 11.5678 223.346 11.4923C223.435 11.4167 223.535 11.3601 223.649 11.3223C223.775 11.2719 223.907 11.2404 224.045 11.2278C224.184 11.2153 224.303 11.1964 224.404 11.1712C224.517 11.1208 224.643 11.039 224.782 10.9256C224.92 10.7997 225.034 10.699 225.122 10.6234C225.16 10.5605 225.191 10.4786 225.216 10.3779C225.242 10.2772 225.267 10.1827 225.292 10.0946C225.33 10.0064 225.374 9.9309 225.424 9.86794C225.487 9.80498 225.569 9.7735 225.67 9.7735C225.921 9.7735 226.073 9.88053 226.123 10.0946L231.525 26.2623C231.6 26.5016 231.682 26.6905 231.77 26.829C231.871 26.9549 231.991 27.0493 232.129 27.1123C232.268 27.1752 232.419 27.213 232.582 27.2256C232.759 27.2382 232.96 27.2445 233.187 27.2445H233.867C233.98 27.2445 234.068 27.2571 234.131 27.2823C234.194 27.2823 234.263 27.3263 234.339 27.4145C234.427 27.5026 234.471 27.5782 234.471 27.6411C234.471 27.8426 234.358 27.9496 234.131 27.9622C234.106 27.9874 234.018 28 233.867 28H232.79C232.425 28 232.003 27.9811 231.525 27.9433C231.046 27.893 230.568 27.8678 230.089 27.8678C229.309 27.8678 228.553 27.893 227.823 27.9433C227.092 27.9811 226.444 28 225.877 28C225.814 28 225.745 27.9874 225.67 27.9622C225.607 27.937 225.575 27.8867 225.575 27.8111C225.575 27.7356 225.607 27.66 225.67 27.5845C225.733 27.5089 225.808 27.4397 225.896 27.3767C225.984 27.3012 226.079 27.2445 226.18 27.2067C226.293 27.1689 226.394 27.1501 226.482 27.1501C226.608 27.1501 226.734 27.1564 226.86 27.1689C226.985 27.1815 227.124 27.1878 227.275 27.1878C227.678 27.1878 228.005 27.1438 228.257 27.0556C228.471 26.9801 228.578 26.829 228.578 26.6023C228.578 26.5771 228.572 26.5457 228.559 26.5079C228.547 26.4701 228.534 26.4134 228.522 26.3379C228.471 26.2246 228.389 26.0168 228.276 25.7146C228.163 25.3998 228.043 25.0598 227.917 24.6947C227.791 24.3295 227.665 23.9769 227.54 23.637C227.426 23.297 227.338 23.0326 227.275 22.8437C227.225 22.7304 227.168 22.6233 227.105 22.5226C227.055 22.4093 226.96 22.3526 226.822 22.3526H221.514C221.2 22.3526 220.998 22.5037 220.91 22.8059L220.154 25.5446C220.129 25.6328 220.11 25.7083 220.098 25.7713C220.085 25.8342 220.079 25.9224 220.079 26.0357C220.079 26.2372 220.092 26.4009 220.117 26.5268C220.154 26.6401 220.205 26.7345 220.268 26.8101C220.343 26.8856 220.438 26.9423 220.551 26.9801C220.677 27.0053 220.834 27.0304 221.023 27.0556C221.086 27.0556 221.187 27.0682 221.325 27.0934C221.477 27.106 221.634 27.1249 221.798 27.1501C221.961 27.1752 222.112 27.2004 222.251 27.2256C222.402 27.2382 222.509 27.2445 222.572 27.2445C222.635 27.2697 222.723 27.3326 222.836 27.4334C222.962 27.5215 223.025 27.6222 223.025 27.7356C223.025 27.7985 223 27.8615 222.95 27.9244C222.899 27.9748 222.805 28 222.667 28H222.081C221.88 28 221.603 27.9937 221.25 27.9811C220.91 27.9685 220.564 27.9622 220.211 27.9622C219.871 27.9622 219.462 27.9685 218.983 27.9811C218.505 27.9937 218.014 28 217.51 28C217.447 28 217.321 27.9937 217.132 27.9811C216.944 27.9559 216.748 27.9244 216.547 27.8867C216.358 27.8363 216.188 27.7796 216.037 27.7167C215.886 27.6411 215.81 27.5593 215.81 27.4711ZM221.647 20.6716C221.634 20.6968 221.628 20.7661 221.628 20.8794V20.9738C221.628 21.1123 221.665 21.232 221.741 21.3327C221.829 21.4208 221.942 21.4649 222.081 21.4649C222.849 21.4649 223.573 21.4964 224.253 21.5593C224.946 21.6097 225.613 21.6349 226.255 21.6349C226.394 21.6349 226.501 21.5971 226.576 21.5216C226.652 21.4334 226.69 21.3516 226.69 21.276V21.0683C226.69 21.0431 226.683 21.0179 226.671 20.9927C226.645 20.9549 226.627 20.892 226.614 20.8038L224.593 15.062C224.492 14.7976 224.373 14.6654 224.234 14.6654C224.171 14.6654 224.102 14.6906 224.026 14.7409C223.951 14.7913 223.9 14.8417 223.875 14.892L221.647 20.6716ZM241.365 11.0012C241.365 11.0516 241.372 11.1775 241.384 11.3789C241.397 11.5804 241.409 11.7945 241.422 12.0211C241.447 12.2478 241.466 12.4618 241.479 12.6633C241.491 12.8648 241.497 12.9907 241.497 13.0411V18.0085C241.497 18.2351 241.573 18.3862 241.724 18.4618C241.749 18.4618 241.819 18.4681 241.932 18.4807C242.045 18.4933 242.165 18.5059 242.291 18.5184C242.429 18.5184 242.561 18.5247 242.687 18.5373C242.826 18.5499 242.933 18.5562 243.008 18.5562C243.437 18.5562 243.839 18.4933 244.217 18.3673C244.847 18.2162 245.395 18.0463 245.86 17.8574C246.326 17.6559 246.71 17.3915 247.013 17.0641C247.327 16.7367 247.56 16.3212 247.711 15.8175C247.863 15.3139 247.938 14.6717 247.938 13.891C247.938 12.8585 247.592 11.9959 246.899 11.3034C246.37 10.762 245.753 10.3968 245.048 10.2079C244.343 10.019 243.518 9.9246 242.574 9.9246C242.234 9.9246 241.944 10.0127 241.705 10.189C241.479 10.3653 241.365 10.636 241.365 11.0012ZM247.05 27.5845C247.05 27.383 247.17 27.2508 247.409 27.1878H248.826C248.939 27.1627 249.052 27.1501 249.166 27.1501C249.279 27.1375 249.361 27.106 249.411 27.0556C249.474 27.0178 249.506 26.9738 249.506 26.9234C249.506 26.873 249.474 26.7975 249.411 26.6968C248.542 25.5257 247.667 24.3547 246.786 23.1837C245.917 22.0126 245.029 20.829 244.123 19.6328C244.072 19.5824 244.009 19.5258 243.934 19.4628C243.871 19.3999 243.814 19.3684 243.764 19.3684L241.856 19.1417H241.8C241.598 19.1417 241.497 19.2614 241.497 19.5006V25.2802C241.497 25.7713 241.554 26.149 241.667 26.4134C241.793 26.6653 241.944 26.8479 242.121 26.9612C242.297 27.0619 242.492 27.1186 242.706 27.1312C242.933 27.1438 243.141 27.1501 243.33 27.1501C243.544 27.1501 243.726 27.1689 243.877 27.2067C244.041 27.2445 244.123 27.3893 244.123 27.6411C244.123 27.7922 244.054 27.893 243.915 27.9433C243.777 27.9811 243.638 28 243.5 28H235.944C235.831 28 235.724 27.9685 235.623 27.9056C235.535 27.8426 235.491 27.7545 235.491 27.6411C235.491 27.5026 235.579 27.383 235.756 27.2823C235.882 27.2445 236.089 27.2193 236.379 27.2067C236.681 27.1815 236.983 27.1564 237.285 27.1312C237.588 27.106 237.852 27.0682 238.079 27.0178C238.318 26.9549 238.438 26.8605 238.438 26.7345V26.0735C238.438 25.4817 238.431 24.9402 238.419 24.4491C238.406 23.9581 238.394 23.4607 238.381 22.957C238.381 22.4408 238.375 21.893 238.362 21.3138C238.349 20.7346 238.343 20.0672 238.343 19.3117V13.3055V10.9068C238.318 10.8564 238.299 10.7808 238.287 10.6801C238.287 10.5668 238.261 10.4786 238.211 10.4157C238.186 10.3905 238.154 10.3716 238.117 10.359C238.091 10.3464 238.066 10.3338 238.041 10.3212C238.003 10.3086 237.978 10.2961 237.965 10.2835H236.209C236.07 10.2835 235.926 10.252 235.774 10.189C235.636 10.1261 235.542 10.0379 235.491 9.9246C235.479 9.91201 235.472 9.89312 235.472 9.86794C235.46 9.85535 235.453 9.83016 235.453 9.79239C235.453 9.71684 235.472 9.6287 235.51 9.52796C235.56 9.42723 235.642 9.37686 235.756 9.37686H245.294C246.163 9.37686 246.975 9.4713 247.73 9.66018C248.498 9.83646 249.166 10.1261 249.732 10.529C250.299 10.9319 250.746 11.4608 251.073 12.1156C251.401 12.7577 251.564 13.5447 251.564 14.4765C251.564 15.0935 251.52 15.6035 251.432 16.0064C251.344 16.3967 251.206 16.7304 251.017 17.0074C250.828 17.2845 250.589 17.53 250.299 17.7441C250.009 17.9581 249.669 18.1974 249.279 18.4618C249.204 18.5247 249.09 18.5877 248.939 18.6507C248.801 18.7136 248.662 18.7766 248.524 18.8395C248.385 18.8899 248.265 18.9466 248.165 19.0095C248.064 19.0725 248.014 19.1417 248.014 19.2173C248.014 19.2802 248.102 19.4502 248.278 19.7272C248.467 19.9917 248.694 20.3128 248.958 20.6905C249.235 21.0683 249.537 21.4712 249.865 21.8993C250.205 22.3148 250.519 22.7115 250.809 23.0892C251.111 23.467 251.369 23.7944 251.583 24.0714C251.81 24.3358 251.955 24.4995 252.018 24.5625C252.358 24.9024 252.698 25.2235 253.038 25.5257C253.39 25.8153 253.755 26.0798 254.133 26.319C254.524 26.5582 254.933 26.766 255.361 26.9423C255.789 27.106 256.249 27.2193 256.74 27.2823C256.84 27.4586 256.891 27.6097 256.891 27.7356C256.891 27.8489 256.866 27.9244 256.815 27.9622C256.777 27.9874 256.67 28 256.494 28H249.279H248.165C248.127 28 248.045 28 247.919 28C247.806 27.9874 247.68 27.9685 247.541 27.9433C247.416 27.9182 247.302 27.8804 247.201 27.83C247.101 27.7671 247.05 27.6852 247.05 27.5845ZM270.735 10.2835V14.4387C270.735 14.5898 270.691 14.7283 270.603 14.8543C270.528 14.9676 270.421 15.0242 270.282 15.0242C270.093 15.0242 269.923 14.9361 269.772 14.7598C269.634 14.5835 269.508 14.3821 269.394 14.1554C269.281 13.9162 269.174 13.6769 269.073 13.4377C268.985 13.1984 268.897 13.0096 268.809 12.8711C268.67 12.6822 268.538 12.5185 268.412 12.38C268.299 12.2289 268.173 12.0967 268.034 11.9833C267.896 11.8574 267.745 11.7441 267.581 11.6434C267.417 11.5426 267.235 11.4419 267.033 11.3412C266.731 11.1901 266.385 11.0704 265.995 10.9823C265.617 10.8942 265.17 10.8501 264.654 10.8501C264.15 10.8501 263.64 10.976 263.124 11.2278C262.607 11.4671 262.192 11.8071 261.877 12.2478C261.638 12.5752 261.418 12.9529 261.216 13.381C261.027 13.8091 260.857 14.275 260.706 14.7787C260.568 15.2698 260.461 15.786 260.385 16.3275C260.309 16.8563 260.272 17.3789 260.272 17.8952C260.272 18.0463 260.284 18.317 260.309 18.7073C260.335 19.0851 260.379 19.5132 260.442 19.9917C260.517 20.4702 260.618 20.9612 260.744 21.4649C260.882 21.9686 261.065 22.4156 261.292 22.8059C261.77 23.7503 262.406 24.5247 263.199 25.1291C264.005 25.7335 264.937 26.0483 265.995 26.0735C266.309 26.0735 266.612 26.0357 266.901 25.9601C267.203 25.8846 267.48 25.7902 267.732 25.6768C267.783 25.6516 267.864 25.6013 267.978 25.5257C268.091 25.4502 268.211 25.3683 268.337 25.2802C268.463 25.1795 268.582 25.0787 268.696 24.978C268.821 24.8773 268.916 24.7954 268.979 24.7325C269.143 24.5436 269.294 24.3358 269.432 24.1092C269.571 23.8825 269.684 23.6622 269.772 23.4481C269.873 23.2214 269.955 23.02 270.018 22.8437C270.081 22.6548 270.125 22.51 270.15 22.4093C270.188 22.2582 270.307 22.1826 270.509 22.1826C270.572 22.1826 270.622 22.2141 270.66 22.2771C270.698 22.34 270.723 22.4156 270.735 22.5037C270.761 22.5793 270.773 22.6548 270.773 22.7304C270.786 22.8059 270.792 22.8626 270.792 22.9004C270.792 23.6685 270.622 24.361 270.282 24.978C269.955 25.595 269.508 26.1238 268.941 26.5645C268.4 27.0053 267.814 27.3578 267.185 27.6222C266.555 27.8741 265.888 28 265.182 28C264.314 28 263.514 27.8993 262.784 27.6978C262.066 27.4837 261.411 27.2004 260.819 26.8479C260.24 26.4827 259.724 26.0546 259.271 25.5635C258.83 25.0598 258.446 24.5184 258.118 23.9392C257.716 23.234 257.394 22.4282 257.155 21.5216C256.929 20.615 256.815 19.7335 256.815 18.8773C256.815 17.5048 257.124 16.2268 257.741 15.0431C258.358 13.8469 259.258 12.72 260.442 11.6623C261.147 11.0704 261.858 10.6109 262.576 10.2835C263.306 9.95608 264.131 9.79239 265.05 9.79239C265.415 9.79239 265.755 9.81128 266.07 9.84905C266.398 9.87424 266.725 9.9309 267.052 10.019C267.392 10.0946 267.745 10.2016 268.11 10.3401C268.475 10.4786 268.884 10.6486 269.338 10.8501C269.35 10.8627 269.388 10.869 269.451 10.869C269.602 10.869 269.715 10.8249 269.791 10.7368C269.867 10.6486 269.93 10.5479 269.98 10.4346C270.043 10.3212 270.106 10.2205 270.169 10.1324C270.232 10.0442 270.332 10.0002 270.471 10.0002C270.521 10.0002 270.578 10.0316 270.641 10.0946C270.704 10.1575 270.735 10.2205 270.735 10.2835ZM273.738 27.5845C273.738 27.3326 273.827 27.1689 274.003 27.0934C274.192 27.0178 274.412 26.9738 274.664 26.9612C274.74 26.9612 274.847 26.9675 274.985 26.9801C275.136 26.9801 275.294 26.9864 275.457 26.999C275.621 26.999 275.785 27.0053 275.948 27.0178C276.112 27.0178 276.251 27.0178 276.364 27.0178C276.578 27.0178 276.685 26.8542 276.685 26.5268V11.2467C276.685 11.1586 276.622 11.0579 276.496 10.9445C276.383 10.8312 276.269 10.7745 276.156 10.7745H274.437C274.349 10.7745 274.23 10.7179 274.078 10.6046C273.927 10.4912 273.852 10.3779 273.852 10.2646C273.852 10.1135 273.915 10.0064 274.041 9.94349C274.167 9.86794 274.286 9.83016 274.4 9.83016C274.928 9.83016 275.508 9.83646 276.137 9.84905C276.779 9.84905 277.447 9.85535 278.139 9.86794C278.832 9.88053 279.524 9.89312 280.217 9.90571C280.922 9.90571 281.608 9.90571 282.276 9.90571C282.414 9.90571 282.515 9.95608 282.578 10.0568C282.653 10.145 282.691 10.2205 282.691 10.2835C282.691 10.4094 282.628 10.5038 282.502 10.5668C282.376 10.6171 282.213 10.6549 282.011 10.6801C281.81 10.7053 281.589 10.7242 281.35 10.7368C281.124 10.7368 280.903 10.7494 280.689 10.7745C280.475 10.7871 280.286 10.8249 280.122 10.8879C279.959 10.9382 279.845 11.0201 279.782 11.1334V18.1407C279.782 18.3044 279.902 18.3862 280.141 18.3862H287.64C287.753 18.3862 287.879 18.3422 288.017 18.254C288.156 18.1533 288.225 18.0337 288.225 17.8952V11.2656C288.225 11.039 288.124 10.9068 287.923 10.869C287.596 10.8186 287.268 10.7934 286.941 10.7934C286.613 10.7808 286.286 10.7305 285.959 10.6423C285.82 10.5794 285.694 10.5038 285.581 10.4157C285.468 10.3149 285.411 10.2394 285.411 10.189C285.411 10.0505 285.48 9.95608 285.619 9.90571C285.757 9.85535 285.852 9.83016 285.902 9.83016C285.965 9.83016 286.059 9.83646 286.185 9.84905C286.311 9.86164 286.444 9.88053 286.582 9.90571C286.733 9.91831 286.872 9.9309 286.998 9.94349C287.123 9.95608 287.224 9.96238 287.3 9.96238H289.661C289.887 9.96238 290.145 9.95608 290.435 9.94349C290.737 9.9309 291.039 9.91831 291.342 9.90571C291.656 9.88053 291.965 9.86164 292.267 9.84905C292.582 9.83646 292.859 9.83016 293.098 9.83016C293.287 9.83016 293.4 9.89312 293.438 10.019C293.489 10.1324 293.514 10.2898 293.514 10.4912C293.514 10.5542 293.482 10.636 293.419 10.7368C293.369 10.8249 293.312 10.869 293.249 10.869H291.757C291.468 10.869 291.323 10.9571 291.323 11.1334V26.4323C291.323 26.5708 291.386 26.6905 291.512 26.7912C291.638 26.8793 291.77 26.9234 291.908 26.9234H293.57C293.633 26.9234 293.69 26.9612 293.74 27.0367C293.791 27.1123 293.816 27.1815 293.816 27.2445C293.791 27.446 293.722 27.616 293.608 27.7545C293.507 27.8804 293.369 27.9433 293.193 27.9433C292.878 27.9433 292.538 27.937 292.173 27.9244C291.808 27.9119 291.436 27.9056 291.058 27.9056C290.718 27.9056 290.391 27.8993 290.076 27.8867C289.761 27.8741 289.516 27.8678 289.34 27.8678C288.987 27.8678 288.666 27.8741 288.376 27.8867C288.099 27.8993 287.829 27.9182 287.564 27.9433C287.3 27.9559 287.029 27.9685 286.752 27.9811C286.488 27.9937 286.192 28 285.864 28C285.726 28 285.594 27.9685 285.468 27.9056C285.342 27.8426 285.279 27.723 285.279 27.5467C285.279 27.4837 285.323 27.3956 285.411 27.2823C285.499 27.1564 285.575 27.0934 285.638 27.0934H287.432C287.608 27.0934 287.785 27.0241 287.961 26.8856C288.137 26.7471 288.225 26.552 288.225 26.3001V20.4828C288.225 20.2057 288.181 19.9665 288.093 19.765C288.005 19.5636 287.898 19.4565 287.772 19.4439H280.255C279.94 19.4439 279.782 19.595 279.782 19.8972V26.5645C279.871 26.766 279.959 26.8982 280.047 26.9612C280.135 27.0116 280.28 27.0619 280.481 27.1123C280.595 27.1375 280.714 27.1564 280.84 27.1689C280.979 27.1815 281.13 27.1878 281.293 27.1878H281.747H282.106C282.408 27.1878 282.559 27.3389 282.559 27.6411C282.559 27.8804 282.402 28 282.087 28C281.961 28 281.747 27.9937 281.445 27.9811C281.155 27.9685 280.809 27.9622 280.406 27.9622C280.028 27.9622 279.631 27.9622 279.216 27.9622C278.813 27.9496 278.435 27.9433 278.083 27.9433C277.491 27.9433 277 27.9496 276.609 27.9622C276.232 27.9622 275.854 27.9748 275.476 28C275.275 28 275.092 28.0063 274.928 28.0189C274.777 28.0441 274.601 28.0567 274.4 28.0567C274.185 28.0567 274.022 28.0378 273.908 28C273.795 27.9622 273.738 27.8237 273.738 27.5845Z" fill="#1400FF"/>
</svg>
